<svg xmlns="http://www.w3.org/2000/svg" width="420" height="560" viewBox="0 0 420 560">
  <defs>
    <linearGradient id="bag" x1="0" y1="0" x2="1" y2="1">
      <stop offset="0" stop-color="#c01b1b"/>
      <stop offset="0.5" stop-color="#7e0f0f"/>
      <stop offset="1" stop-color="#4a0808"/>
    </linearGradient>
    <linearGradient id="sheen" x1="0" y1="0" x2="1" y2="0">
      <stop offset="0" stop-color="#fff" stop-opacity="0"/>
      <stop offset="0.45" stop-color="#fff" stop-opacity="0.28"/>
      <stop offset="0.6" stop-color="#fff" stop-opacity="0"/>
    </linearGradient>
  </defs>
  <rect width="420" height="560" fill="#160b07"/>
  <g>
    <path d="M120 70 h180 v40 l-12 12 v360 a18 18 0 0 1 -18 18 h-120 a18 18 0 0 1 -18 -18 v-360 l-12 -12 z" fill="url(#bag)"/>
    <rect x="120" y="70" width="180" height="26" fill="#3a0606"/>
    <path d="M120 70 h180 v40 l-12 12 v360 a18 18 0 0 1 -18 18 h-120 a18 18 0 0 1 -18 -18 v-360 l-12 -12 z" fill="url(#sheen)" opacity="0.5"/>
    <rect x="150" y="230" width="120" height="150" rx="6" fill="#e9d6ab"/>
    <rect x="150" y="230" width="120" height="150" rx="6" fill="none" stroke="#b6913f" stroke-width="2"/>
    <text x="210" y="290" text-anchor="middle" font-family="Georgia, serif" font-size="20" fill="#6e1414" font-weight="bold">100% ARÁBICA</text>
    <text x="210" y="320" text-anchor="middle" font-family="Georgia, serif" font-size="15" fill="#3a1408">CAFÉ EM GRÃOS</text>
    <text x="210" y="362" text-anchor="middle" font-family="Inter, sans-serif" font-size="11" fill="#6e1414">1 kg</text>
  </g>
</svg>
